<svg width="84" height="116" viewBox="0 0 84 116" fill="none" xmlns="http://www.w3.org/2000/svg">
    <path d="M0.437256 58.3099V0.860474H84V115.759H0.437256V58.3099ZM64.4062 87.3697C65.0367 87.3092 65.6507 87.1356 66.2179 86.8574C68.3162 85.8377 69.5208 83.6403 70.4777 79.073C70.8468 77.2921 76.282 49.544 76.35 49.0892C76.4763 48.1988 76.3111 47.2604 75.942 46.8104C75.8194 46.6858 75.6766 46.5822 75.5194 46.504L75.228 46.3556H73.8145C72.5857 46.3556 72.3671 46.3556 72.1242 46.4514C71.5754 46.6381 71.1188 47.1982 70.8857 47.9642C70.8322 48.1461 70.0697 52.1819 69.1954 56.9311L67.6022 65.5581L67.3788 64.5527C64.6588 52.3591 63.6679 48.0264 63.5222 47.6434C63.4235 47.3507 63.2514 47.0872 63.0219 46.8774C62.5119 46.3652 62.4536 46.3508 60.2679 46.3508C58.2716 46.3508 58.2182 46.3508 57.8393 46.7051C57.4216 47.0833 57.2467 47.7392 57.3002 48.7158C57.3293 49.2664 57.5187 50.0084 60.6419 62.0441C63.8622 74.4292 64.2896 76.1335 64.4645 77.2538C64.6879 78.69 64.2216 80.6673 63.4542 81.529C63.2988 81.7061 63.2745 81.7157 63.0462 81.6822C62.9102 81.6822 62.4633 81.5529 62.0553 81.438C60.7536 81.0646 60.297 81.0933 59.8113 81.5721C59.345 82.0317 59.1459 82.7594 59.141 84.0137C59.141 85.2393 59.277 85.6414 59.9133 86.2781C60.5496 86.9149 61.487 87.2739 62.8033 87.3793C63.5999 87.4367 63.8719 87.4367 64.4062 87.3745V87.3697ZM55.197 79.1736C55.3842 79.0819 55.5499 78.9528 55.6837 78.7946C55.8175 78.6363 55.9164 78.4524 55.9741 78.2544C56.0713 77.9767 56.081 77.7852 56.081 76.55C56.081 75.3293 56.0664 75.1186 55.979 74.8553C55.7847 74.276 55.3184 73.917 54.6287 73.8164C54.4296 73.7685 53.6573 73.7685 52.9044 73.7685C51.1315 73.7638 51.0684 73.7207 50.7381 72.8876C50.4078 72.0259 50.2718 71.3269 50.1893 70.0056C50.1343 66.91 50.1149 63.814 50.131 60.718V52.2681H51.831C54.0361 52.2681 54.2936 52.2202 54.755 51.7271C55.028 51.3985 55.1998 50.9999 55.2504 50.5781C55.3211 49.7274 55.3211 48.8724 55.2504 48.0216C55.1241 47.2556 54.7696 46.7242 54.2256 46.4801C53.9487 46.3604 53.9099 46.3556 52.0398 46.3365H50.1358L50.1213 40.4958C50.1067 35.2774 50.097 34.6216 50.0193 34.3774C49.9536 34.1222 49.8322 33.8841 49.6636 33.6799C49.495 33.4756 49.2832 33.3101 49.043 33.1949C48.7904 33.08 48.6932 33.0752 47.4887 33.0561C46.1772 33.0561 45.7595 33.0561 45.4049 33.238C44.9824 33.4391 44.6861 33.8747 44.5064 34.5689C44.4384 34.8274 44.3509 36.2254 44.1372 40.6107L43.8458 46.3269C43.8458 46.3269 43.4572 46.3269 42.9715 46.3748C41.9709 46.4226 41.6941 46.4801 41.3832 46.7865C40.9363 47.2269 40.8003 47.6961 40.7663 48.9648C40.7178 50.5638 40.8635 51.2962 41.3249 51.7798C41.6892 52.1676 41.9758 52.2585 43.0006 52.2873L43.8409 52.3351V60.8807C43.8409 69.0194 43.8701 70.5466 44.0061 71.7674C44.2052 73.5387 44.6375 75.1617 45.1767 76.2101C46.1189 78.0294 47.819 79.164 49.9755 79.4081H54.857L55.197 79.2167V79.1736ZM19.0256 79.1736C19.5016 78.9198 19.8028 78.4363 19.9971 77.5841C20.0748 77.2155 20.0845 75.6644 20.0845 55.9544C20.0845 35.9238 20.0797 34.6982 19.9874 34.363C19.7445 33.4343 19.0645 32.9747 18.1514 33.1183C17.9814 33.1662 16.4805 33.5205 14.8193 33.9561C13.1533 34.387 11.497 34.8179 11.1376 34.904C10.3119 35.1099 10.0982 35.2008 9.77274 35.5072C9.26274 35.9764 9.18016 36.3929 9.18016 38.4084C9.18016 40.4 9.25788 40.8022 9.76302 41.3001C10.2196 41.7549 10.681 41.7788 11.9779 41.4437C12.4782 41.3192 12.9153 41.2139 12.9493 41.2139C12.9979 41.2139 13.0173 44.9672 13.0319 59.2291C13.0465 75.6787 13.0562 77.2777 13.1339 77.6129C13.367 78.5799 13.6828 79.0299 14.2802 79.2406C14.4453 79.3028 14.9262 79.3172 16.6456 79.3076C18.7585 79.3076 18.8071 79.3076 19.0256 79.1784V79.1736ZM34.5832 79.1736C35.03 78.9533 35.3215 78.5273 35.54 77.7852L35.6566 77.3831L35.6712 56.1507C35.6809 40.8596 35.6712 34.8179 35.6226 34.5641C35.4623 33.6066 34.9183 33.0896 34.0586 33.0896C33.738 33.0896 33.0969 33.2332 29.896 34.0662C27.176 34.77 26.0151 35.0907 25.7723 35.2104C25.3933 35.3898 25.098 35.7048 24.9465 36.0913C24.83 36.3786 24.83 36.4312 24.83 38.3845C24.83 40.3713 24.83 40.3809 24.9563 40.6968C25.0497 40.9133 25.1869 41.1088 25.3594 41.2713C25.8451 41.7501 26.1948 41.774 27.5743 41.4341C27.9094 41.3478 28.2462 41.268 28.5846 41.1947C28.6234 41.1947 28.6428 46.9492 28.6526 59.344L28.6671 77.4884L28.7934 77.9001C28.9021 78.3208 29.1294 78.7026 29.4491 79.0012C29.828 79.298 29.862 79.3028 32.2177 79.2885C34.2286 79.2885 34.3889 79.2885 34.5832 79.1736Z" fill="black" />
</svg>