<svg width="81" height="115" viewBox="0 0 81 115" fill="none" xmlns="http://www.w3.org/2000/svg">
    <path fill-rule="evenodd" clip-rule="evenodd" d="M57.288 2.8792C58.2261 4.04422 58.705 5.61605 59.6621 8.7603L80.5712 77.4465C72.7173 73.3708 64.2877 70.517 55.5732 68.9835L41.9593 22.9782C41.8507 22.6112 41.6263 22.2893 41.3196 22.0605C41.0128 21.8317 40.6403 21.7083 40.2576 21.7088C39.8749 21.7094 39.5027 21.8338 39.1966 22.0635C38.8905 22.2931 38.667 22.6157 38.5595 22.983L25.1105 68.9602C16.3567 70.4866 7.88828 73.345 0 77.4358L21.0115 8.74481C21.9716 5.60592 22.4517 4.03707 23.3904 2.87384C24.2188 1.84713 25.2963 1.04969 26.5203 0.557495C27.9069 0 29.5484 0 32.8309 0H47.838C51.1246 0 52.7679 0 54.1556 0.558686C55.3804 1.05277 56.4586 1.85153 57.288 2.8792Z" fill="black" />
    <path fill-rule="evenodd" clip-rule="evenodd" d="M59.7895 80.7154C56.3427 83.663 49.4628 85.6732 41.5381 85.6732C31.8117 85.6732 23.6596 82.6451 21.4957 78.5723C20.7226 80.9071 20.5493 83.5779 20.5493 85.2843C20.5493 85.2843 20.0394 93.6634 25.8675 99.4909C25.8676 98.7714 26.0094 98.0589 26.2848 97.3942C26.5602 96.7295 26.9639 96.1255 27.4727 95.6168C27.9815 95.1081 28.5856 94.7046 29.2504 94.4293C29.9152 94.154 30.6276 94.0124 31.3472 94.0124C36.5332 94.0124 36.5272 98.5367 36.5231 102.208L36.5225 102.536C36.5225 108.108 39.9282 112.884 44.7717 114.899C44.0262 113.364 43.64 111.68 43.6424 109.974C43.6424 104.66 46.7623 102.68 50.3884 100.38C53.2741 98.5504 56.4797 96.5176 58.6888 92.4394C59.8786 90.2424 60.4998 87.7827 60.4959 85.2843C60.4974 83.7342 60.2591 82.1932 59.7895 80.7159V80.7154Z" fill="#FF5D01" />
    <path fill-rule="evenodd" clip-rule="evenodd" d="M59.7895 80.7154C56.3427 83.663 49.4628 85.6732 41.5381 85.6732C31.8117 85.6732 23.6596 82.6451 21.4957 78.5723C20.7226 80.9071 20.5493 83.5779 20.5493 85.2843C20.5493 85.2843 20.0394 93.6634 25.8675 99.4909C25.8676 98.7714 26.0094 98.0589 26.2848 97.3942C26.5602 96.7295 26.9639 96.1255 27.4727 95.6168C27.9815 95.1081 28.5856 94.7046 29.2504 94.4293C29.9152 94.154 30.6276 94.0124 31.3472 94.0124C36.5332 94.0124 36.5272 98.5367 36.5231 102.208L36.5225 102.536C36.5225 108.108 39.9282 112.884 44.7717 114.899C44.0262 113.364 43.64 111.68 43.6424 109.974C43.6424 104.66 46.7623 102.68 50.3884 100.38C53.2741 98.5504 56.4797 96.5176 58.6888 92.4394C59.8786 90.2424 60.4998 87.7827 60.4959 85.2843C60.4974 83.7342 60.2591 82.1932 59.7895 80.7159V80.7154Z" fill="url(#paint0_linear_27_46)" />
    <defs>
        <linearGradient id="paint0_linear_27_46" x1="75.3096" y1="63.6799" x2="57.7845" y2="100.367" gradientUnits="userSpaceOnUse">
            <stop stop-color="#FF1639" />
            <stop offset="1" stop-color="#FF1639" stop-opacity="0" />
        </linearGradient>
    </defs>
</svg>