<svg width="102" height="116" viewBox="0 0 102 116" fill="none" xmlns="http://www.w3.org/2000/svg">
    <path d="M9.86445 104.271L0.648193 0.860474H101.953L92.7246 104.254L51.2391 115.756L9.86445 104.271Z" fill="#1572B6" />
    <path d="M51.3007 106.966L84.8255 97.6722L92.7123 9.31757H51.3007V106.966Z" fill="#33A9DC" />
    <path d="M51.3007 46.7817H68.0836L69.2408 33.7945H51.3007V21.1108H83.1021L82.7984 24.5125L79.684 59.4654H51.3007V46.7817Z" fill="white" />
    <path d="M51.3785 79.7198L51.3211 79.7362L37.1972 75.92L36.2944 65.8051H23.5615L25.3383 85.719L51.317 92.9328L51.3785 92.9164V79.7198Z" fill="#EBEBEB" />
    <path d="M67.0047 58.9279L65.4782 75.9119L51.3337 79.728V92.9246L77.333 85.719L77.5258 83.5771L79.7293 58.9279H67.0047Z" fill="white" />
    <path d="M51.3456 21.1108V33.7944H20.7095L20.4551 30.9426L19.8765 24.5125L19.5729 21.1108H51.3456Z" fill="#EBEBEB" />
    <path d="M51.3005 46.7817V59.4653H37.353L37.0986 56.6135L36.5241 50.1834L36.2205 46.7817H51.3005Z" fill="#EBEBEB" />
</svg>