<svg width="102" height="116" viewBox="0 0 102 116" fill="none" xmlns="http://www.w3.org/2000/svg">
    <path d="M9.22036 104.271L0 0.860474H101.313L92.0805 104.254L50.595 115.756L9.22036 104.271Z" fill="#E44F26" />
    <path d="M50.6565 106.966L84.1814 97.6722L92.0681 9.31757H50.6565V106.966Z" fill="#F1662A" />
    <path d="M50.6565 47.6681H33.8736L32.7164 34.6808H50.6565V21.9972H18.8551L19.1588 25.403L22.2732 60.3517H50.6565V47.6681Z" fill="#EBEBEB" />
    <path d="M50.6563 80.6062L50.5988 80.6226L36.4749 76.8105L35.5721 66.6956H22.8392L24.616 86.6054L50.5988 93.8192L50.6563 93.8027V80.6062Z" fill="#EBEBEB" />
    <path d="M50.6115 47.6681V60.3517H66.229L64.76 76.8023L50.6115 80.6185V93.815L76.6148 86.6053L76.8035 84.4633L79.7826 51.0739L80.0945 47.6681H50.6115Z" fill="white" />
    <path d="M50.6115 21.9972V34.6808H81.2475L81.5019 31.833L82.0805 25.403L82.3842 21.9972H50.6115Z" fill="white" />
</svg>