<svg width="115" height="115" viewBox="0 0 115 115" fill="none" xmlns="http://www.w3.org/2000/svg">
    <path d="M0 0H114.899V114.899H0V0Z" fill="#F7DF1E" />
    <path d="M30.2113 96.0177L39.0037 90.6964C40.7003 93.704 42.2433 96.2488 45.9448 96.2488C49.4927 96.2488 51.7301 94.8611 51.7301 89.4626V52.7498H62.5274V89.6152C62.5274 100.799 55.9719 105.889 46.4075 105.889C37.7699 105.889 32.7561 101.416 30.2108 96.0168" fill="black" />
    <path d="M68.3922 94.8606L77.1837 89.7705C79.4983 93.5501 82.5063 96.3265 87.8276 96.3265C92.3019 96.3265 95.1546 94.0896 95.1546 91.0043C95.1546 87.3024 92.2238 85.991 87.2876 83.8321L84.5889 82.6742C76.7986 79.3587 71.6313 75.1936 71.6313 66.4012C71.6313 58.3026 77.8013 52.1322 87.4425 52.1322C94.3068 52.1322 99.2429 54.5235 102.79 60.7707L94.3831 66.17C92.5317 62.8537 90.5272 61.5427 87.442 61.5427C84.2796 61.5427 82.2743 63.548 82.2743 66.17C82.2743 69.4092 84.2796 70.7211 88.907 72.7265L91.6062 73.8831C100.785 77.817 105.952 81.8273 105.952 90.8504C105.952 100.569 98.3166 105.89 88.0587 105.89C78.0324 105.89 71.5537 101.109 68.3917 94.8611" fill="black" />
</svg>