<svg width="26" height="25" viewBox="0 0 28 27" fill="none" xmlns="http://www.w3.org/2000/svg">
    <path d="M26.5 14.6261C26.2811 16.9953 25.3919 19.2532 23.9366 21.1355C22.4812 23.0178 20.5199 24.4467 18.2822 25.255C16.0444 26.0633 13.6227 26.2176 11.3004 25.6997C8.97813 25.1819 6.85137 24.0135 5.16895 22.3311C3.48654 20.6486 2.31806 18.5219 1.80025 16.1996C1.28244 13.8773 1.43671 11.4556 2.24502 9.21785C3.05332 6.98006 4.48222 5.01876 6.36453 3.56343C8.24683 2.1081 10.5047 1.21894 12.8739 1C11.4868 2.87657 10.8193 5.18868 10.9928 7.51579C11.1664 9.8429 12.1694 12.0304 13.8195 13.6805C15.4696 15.3306 17.6571 16.3336 19.9842 16.5072C22.3113 16.6807 24.6234 16.0132 26.5 14.6261V14.6261Z" stroke="black" stroke-width="2" stroke-linecap="round" stroke-linejoin="round" />
</svg>